# xmcd
#
# Track frame offsets:
#	150
#	16782
#	33415
#	48172
#	64985
#	81915
#	96792
#	112507
#	128500
#	143275
#	159607
#	176752
#	193000
#	209620
#	233397
#	250207
#	267287
#	284327
#	303017
#
# Disc length: 4261 seconds
#
# Revision: 1
# Processed by: cddbd v1.5.1PL0 Copyright (c) Steve Scherf et al.
# Submitted via: CDex 1.50Beta5
#
DISCID=f110a313
DTITLE=太田貴子 - TAKAKO OHTA VOL.1 BEST POP
DYEAR=1990
DGENRE=Pop
TTITLE0=美衝撃
TTITLE1=恋はHurry Up
TTITLE2=LOVEさりげなく
TTITLE3=BIN・KANルージュ
TTITLE4=Heartbreak Mistake
TTITLE5=天使のミラクル
TTITLE6=あなたに一番効く薬
TTITLE7=ハートのSeason
TTITLE8=恋したらデリカシー
TTITLE9=星屑のエモーション
TTITLE10=Coolな人魚
TTITLE11=忘れチャイナの青い鳥
TTITLE12=美人物語
TTITLE13=大人になれない
TTITLE14=再会イン・ザ・レイン
TTITLE15=どけて
TTITLE16=感じたいエモーション
TTITLE17=ハローMr.イエスタデイ
TTITLE18=Long Good-Bye
EXTD=
EXTT0=
EXTT1=
EXTT2=
EXTT3=
EXTT4=
EXTT5=
EXTT6=
EXTT7=
EXTT8=
EXTT9=
EXTT10=
EXTT11=
EXTT12=
EXTT13=
EXTT14=
EXTT15=
EXTT16=
EXTT17=
EXTT18=
PLAYORDER=
